<svg width="22" height="15" viewBox="0 0 22 15" fill="none" xmlns="http://www.w3.org/2000/svg">
<path fill-rule="evenodd" clip-rule="evenodd" d="M0.9848 10.7097C0.9848 10.7097 5.00576 14.2062 8.20335 10.7402C8.20335 10.7402 7.66861 10.7392 7.32558 10.4756C7.01269 10.2348 6.8888 9.72939 6.8888 9.72939C6.8888 9.72939 7.88348 9.17313 7.51011 8.75305C7.51011 8.75305 5.30998 8.709 5.18686 7.38094L6.47938 6.54655C6.47938 6.54655 5.97164 6.79265 5.46896 6.54256C5.46896 6.54256 4.16473 5.60704 4.41363 4.64899L5.5033 4.53784C5.5033 4.53784 3.61273 3.19427 4.14078 2.16211C4.14078 2.16211 4.32265 1.27365 10.5766 5.42629C10.5766 5.42629 11.6791 1.50247 13.7157 0.639548C13.7157 0.639548 14.054 0.802016 14.054 0.97451C14.054 0.97451 14.3431 0.353654 14.7238 0.29609C14.7238 0.29609 15.1841 0.701378 14.8849 0.932192C14.8849 0.932192 15.6596 0.402236 16.038 0.671084C16.038 0.671084 16.007 1.14274 14.8933 1.72929C14.8933 1.72929 17.7838 1.8895 18.7926 5.74372C18.7926 5.74372 20.0464 6.19433 21.2229 5.43756C21.2229 5.43756 21.3206 6.00708 19.4934 6.81267C19.4934 6.81267 19.6634 7.08704 21.195 6.87826C21.195 6.87826 21.1831 8.0178 18.7599 8.00855C18.7599 8.00855 16.7139 13.9371 11.7407 14.7532C5.6965 15.7448 1.45114 12.7232 0.9848 10.7097Z" fill="#45B0E3"/>
</svg>
